<svg xmlns="http://www.w3.org/2000/svg" xmlns:xlink="http://www.w3.org/1999/xlink" width="921" zoomAndPan="magnify" viewBox="0 0 690.75 176.249993" height="235" preserveAspectRatio="xMidYMid meet" version="1.0"><defs><g/></defs><g fill="#ffffff" fill-opacity="1"><g transform="translate(24.82799, 125.95266)"><g><path d="M 28.78125 -12.734375 C 31.132812 -12.734375 33.078125 -12.925781 34.609375 -13.3125 C 36.148438 -13.707031 37.382812 -14.242188 38.3125 -14.921875 C 39.238281 -15.609375 39.878906 -16.414062 40.234375 -17.34375 C 40.585938 -18.269531 40.765625 -19.300781 40.765625 -20.4375 C 40.765625 -22.863281 39.625 -24.878906 37.34375 -26.484375 C 35.0625 -28.085938 31.140625 -29.816406 25.578125 -31.671875 C 23.148438 -32.523438 20.722656 -33.503906 18.296875 -34.609375 C 15.867188 -35.722656 13.691406 -37.117188 11.765625 -38.796875 C 9.835938 -40.472656 8.269531 -42.503906 7.0625 -44.890625 C 5.851562 -47.285156 5.25 -50.191406 5.25 -53.609375 C 5.25 -57.035156 5.890625 -60.117188 7.171875 -62.859375 C 8.453125 -65.609375 10.269531 -67.945312 12.625 -69.875 C 14.976562 -71.800781 17.832031 -73.28125 21.1875 -74.3125 C 24.539062 -75.351562 28.320312 -75.875 32.53125 -75.875 C 37.53125 -75.875 41.847656 -75.335938 45.484375 -74.265625 C 49.117188 -73.191406 52.113281 -72.015625 54.46875 -70.734375 L 49.65625 -57.578125 C 47.582031 -58.640625 45.28125 -59.582031 42.75 -60.40625 C 40.21875 -61.226562 37.171875 -61.640625 33.609375 -61.640625 C 29.609375 -61.640625 26.734375 -61.085938 24.984375 -59.984375 C 23.234375 -58.878906 22.359375 -57.1875 22.359375 -54.90625 C 22.359375 -53.539062 22.679688 -52.394531 23.328125 -51.46875 C 23.972656 -50.539062 24.882812 -49.703125 26.0625 -48.953125 C 27.238281 -48.210938 28.59375 -47.535156 30.125 -46.921875 C 31.65625 -46.316406 33.347656 -45.691406 35.203125 -45.046875 C 39.054688 -43.617188 42.410156 -42.207031 45.265625 -40.8125 C 48.117188 -39.425781 50.488281 -37.804688 52.375 -35.953125 C 54.269531 -34.097656 55.679688 -31.921875 56.609375 -29.421875 C 57.535156 -26.929688 58 -23.898438 58 -20.328125 C 58 -13.410156 55.570312 -8.039062 50.71875 -4.21875 C 45.875 -0.40625 38.5625 1.5 28.78125 1.5 C 25.5 1.5 22.539062 1.300781 19.90625 0.90625 C 17.269531 0.519531 14.929688 0.0390625 12.890625 -0.53125 C 10.859375 -1.101562 9.109375 -1.707031 7.640625 -2.34375 C 6.179688 -2.988281 4.953125 -3.597656 3.953125 -4.171875 L 8.671875 -17.4375 C 10.878906 -16.226562 13.601562 -15.140625 16.84375 -14.171875 C 20.09375 -13.210938 24.070312 -12.734375 28.78125 -12.734375 Z M 28.78125 -12.734375 "/></g></g></g><g fill="#ffffff" fill-opacity="1"><g transform="translate(87.106365, 125.95266)"><g><path d="M 8.5625 -74.15625 L 25.25 -74.15625 L 25.25 0 L 8.5625 0 Z M 8.5625 -74.15625 "/></g></g></g><g fill="#ffffff" fill-opacity="1"><g transform="translate(120.920742, 125.95266)"><g><path d="M 28.25 -74.15625 C 29.53125 -71.800781 31.007812 -68.894531 32.6875 -65.4375 C 34.363281 -61.976562 36.113281 -58.234375 37.9375 -54.203125 C 39.757812 -50.171875 41.5625 -46.050781 43.34375 -41.84375 C 45.125 -37.632812 46.800781 -33.675781 48.375 -29.96875 C 49.9375 -33.675781 51.609375 -37.632812 53.390625 -41.84375 C 55.179688 -46.050781 56.984375 -50.171875 58.796875 -54.203125 C 60.617188 -58.234375 62.367188 -61.976562 64.046875 -65.4375 C 65.722656 -68.894531 67.203125 -71.800781 68.484375 -74.15625 L 83.6875 -74.15625 C 84.394531 -69.238281 85.050781 -63.726562 85.65625 -57.625 C 86.269531 -51.53125 86.804688 -45.179688 87.265625 -38.578125 C 87.734375 -31.984375 88.160156 -25.367188 88.546875 -18.734375 C 88.941406 -12.097656 89.285156 -5.851562 89.578125 0 L 73.3125 0 C 73.09375 -7.207031 72.804688 -15.054688 72.453125 -23.546875 C 72.097656 -32.035156 71.5625 -40.597656 70.84375 -49.234375 C 69.5625 -46.234375 68.132812 -42.910156 66.5625 -39.265625 C 64.988281 -35.628906 63.4375 -31.992188 61.90625 -28.359375 C 60.375 -24.722656 58.894531 -21.242188 57.46875 -17.921875 C 56.039062 -14.609375 54.828125 -11.773438 53.828125 -9.421875 L 42.171875 -9.421875 C 41.171875 -11.773438 39.957031 -14.609375 38.53125 -17.921875 C 37.101562 -21.242188 35.617188 -24.722656 34.078125 -28.359375 C 32.546875 -31.992188 30.992188 -35.628906 29.421875 -39.265625 C 27.859375 -42.910156 26.4375 -46.234375 25.15625 -49.234375 C 24.4375 -40.597656 23.898438 -32.035156 23.546875 -23.546875 C 23.191406 -15.054688 22.90625 -7.207031 22.6875 0 L 6.421875 0 C 6.703125 -5.851562 7.039062 -12.097656 7.4375 -18.734375 C 7.832031 -25.367188 8.257812 -31.984375 8.71875 -38.578125 C 9.1875 -45.179688 9.722656 -51.53125 10.328125 -57.625 C 10.929688 -63.726562 11.59375 -69.238281 12.3125 -74.15625 Z M 28.25 -74.15625 "/></g></g></g><g fill="#ffffff" fill-opacity="1"><g transform="translate(216.906484, 125.95266)"><g><path d="M 28.78125 -12.734375 C 31.132812 -12.734375 33.078125 -12.925781 34.609375 -13.3125 C 36.148438 -13.707031 37.382812 -14.242188 38.3125 -14.921875 C 39.238281 -15.609375 39.878906 -16.414062 40.234375 -17.34375 C 40.585938 -18.269531 40.765625 -19.300781 40.765625 -20.4375 C 40.765625 -22.863281 39.625 -24.878906 37.34375 -26.484375 C 35.0625 -28.085938 31.140625 -29.816406 25.578125 -31.671875 C 23.148438 -32.523438 20.722656 -33.503906 18.296875 -34.609375 C 15.867188 -35.722656 13.691406 -37.117188 11.765625 -38.796875 C 9.835938 -40.472656 8.269531 -42.503906 7.0625 -44.890625 C 5.851562 -47.285156 5.25 -50.191406 5.25 -53.609375 C 5.25 -57.035156 5.890625 -60.117188 7.171875 -62.859375 C 8.453125 -65.609375 10.269531 -67.945312 12.625 -69.875 C 14.976562 -71.800781 17.832031 -73.28125 21.1875 -74.3125 C 24.539062 -75.351562 28.320312 -75.875 32.53125 -75.875 C 37.53125 -75.875 41.847656 -75.335938 45.484375 -74.265625 C 49.117188 -73.191406 52.113281 -72.015625 54.46875 -70.734375 L 49.65625 -57.578125 C 47.582031 -58.640625 45.28125 -59.582031 42.75 -60.40625 C 40.21875 -61.226562 37.171875 -61.640625 33.609375 -61.640625 C 29.609375 -61.640625 26.734375 -61.085938 24.984375 -59.984375 C 23.234375 -58.878906 22.359375 -57.1875 22.359375 -54.90625 C 22.359375 -53.539062 22.679688 -52.394531 23.328125 -51.46875 C 23.972656 -50.539062 24.882812 -49.703125 26.0625 -48.953125 C 27.238281 -48.210938 28.59375 -47.535156 30.125 -46.921875 C 31.65625 -46.316406 33.347656 -45.691406 35.203125 -45.046875 C 39.054688 -43.617188 42.410156 -42.207031 45.265625 -40.8125 C 48.117188 -39.425781 50.488281 -37.804688 52.375 -35.953125 C 54.269531 -34.097656 55.679688 -31.921875 56.609375 -29.421875 C 57.535156 -26.929688 58 -23.898438 58 -20.328125 C 58 -13.410156 55.570312 -8.039062 50.71875 -4.21875 C 45.875 -0.40625 38.5625 1.5 28.78125 1.5 C 25.5 1.5 22.539062 1.300781 19.90625 0.90625 C 17.269531 0.519531 14.929688 0.0390625 12.890625 -0.53125 C 10.859375 -1.101562 9.109375 -1.707031 7.640625 -2.34375 C 6.179688 -2.988281 4.953125 -3.597656 3.953125 -4.171875 L 8.671875 -17.4375 C 10.878906 -16.226562 13.601562 -15.140625 16.84375 -14.171875 C 20.09375 -13.210938 24.070312 -12.734375 28.78125 -12.734375 Z M 28.78125 -12.734375 "/></g></g></g><g fill="#ffffff" fill-opacity="1"><g transform="translate(279.197962, 77.968721)"><g><path d="M 10.71875 -4.734375 C 11.59375 -4.734375 12.3125 -4.804688 12.875 -4.953125 C 13.445312 -5.097656 13.90625 -5.296875 14.25 -5.546875 C 14.601562 -5.804688 14.84375 -6.109375 14.96875 -6.453125 C 15.101562 -6.796875 15.171875 -7.179688 15.171875 -7.609375 C 15.171875 -8.515625 14.742188 -9.265625 13.890625 -9.859375 C 13.046875 -10.453125 11.585938 -11.097656 9.515625 -11.796875 C 8.617188 -12.109375 7.71875 -12.46875 6.8125 -12.875 C 5.90625 -13.289062 5.09375 -13.8125 4.375 -14.4375 C 3.664062 -15.0625 3.082031 -15.816406 2.625 -16.703125 C 2.175781 -17.597656 1.953125 -18.679688 1.953125 -19.953125 C 1.953125 -21.222656 2.191406 -22.367188 2.671875 -23.390625 C 3.148438 -24.421875 3.828125 -25.289062 4.703125 -26 C 5.578125 -26.71875 6.640625 -27.269531 7.890625 -27.65625 C 9.140625 -28.039062 10.546875 -28.234375 12.109375 -28.234375 C 13.960938 -28.234375 15.566406 -28.035156 16.921875 -27.640625 C 18.273438 -27.242188 19.390625 -26.804688 20.265625 -26.328125 L 18.484375 -21.421875 C 17.710938 -21.828125 16.851562 -22.179688 15.90625 -22.484375 C 14.96875 -22.785156 13.832031 -22.9375 12.5 -22.9375 C 11.019531 -22.9375 9.953125 -22.726562 9.296875 -22.3125 C 8.648438 -21.90625 8.328125 -21.28125 8.328125 -20.4375 C 8.328125 -19.925781 8.445312 -19.5 8.6875 -19.15625 C 8.925781 -18.8125 9.265625 -18.5 9.703125 -18.21875 C 10.140625 -17.9375 10.640625 -17.679688 11.203125 -17.453125 C 11.773438 -17.234375 12.410156 -17.003906 13.109375 -16.765625 C 14.535156 -16.234375 15.78125 -15.707031 16.84375 -15.1875 C 17.90625 -14.675781 18.785156 -14.070312 19.484375 -13.375 C 20.191406 -12.6875 20.71875 -11.878906 21.0625 -10.953125 C 21.414062 -10.023438 21.59375 -8.894531 21.59375 -7.5625 C 21.59375 -4.988281 20.6875 -2.988281 18.875 -1.5625 C 17.070312 -0.144531 14.351562 0.5625 10.71875 0.5625 C 9.488281 0.5625 8.382812 0.488281 7.40625 0.34375 C 6.425781 0.195312 5.554688 0.0195312 4.796875 -0.1875 C 4.046875 -0.40625 3.394531 -0.632812 2.84375 -0.875 C 2.300781 -1.113281 1.84375 -1.335938 1.46875 -1.546875 L 3.21875 -6.484375 C 4.039062 -6.035156 5.054688 -5.628906 6.265625 -5.265625 C 7.472656 -4.910156 8.957031 -4.734375 10.71875 -4.734375 Z M 10.71875 -4.734375 "/></g></g></g><g fill="#ffffff" fill-opacity="1"><g transform="translate(302.377009, 77.968721)"><g><path d="M 1.796875 -10.3125 C 1.796875 -12.175781 2.078125 -13.800781 2.640625 -15.1875 C 3.210938 -16.582031 3.960938 -17.742188 4.890625 -18.671875 C 5.828125 -19.609375 6.898438 -20.3125 8.109375 -20.78125 C 9.316406 -21.257812 10.554688 -21.5 11.828125 -21.5 C 14.804688 -21.5 17.15625 -20.585938 18.875 -18.765625 C 20.601562 -16.953125 21.46875 -14.28125 21.46875 -10.75 C 21.46875 -10.40625 21.453125 -10.023438 21.421875 -9.609375 C 21.398438 -9.203125 21.375 -8.835938 21.34375 -8.515625 L 7.890625 -8.515625 C 8.015625 -7.296875 8.582031 -6.328125 9.59375 -5.609375 C 10.601562 -4.898438 11.957031 -4.546875 13.65625 -4.546875 C 14.75 -4.546875 15.816406 -4.644531 16.859375 -4.84375 C 17.910156 -5.039062 18.769531 -5.285156 19.4375 -5.578125 L 20.234375 -0.75 C 19.910156 -0.59375 19.484375 -0.4375 18.953125 -0.28125 C 18.421875 -0.125 17.828125 0.0078125 17.171875 0.125 C 16.523438 0.25 15.832031 0.351562 15.09375 0.4375 C 14.351562 0.519531 13.609375 0.5625 12.859375 0.5625 C 10.972656 0.5625 9.332031 0.285156 7.9375 -0.265625 C 6.550781 -0.828125 5.398438 -1.59375 4.484375 -2.5625 C 3.566406 -3.53125 2.890625 -4.675781 2.453125 -6 C 2.015625 -7.332031 1.796875 -8.769531 1.796875 -10.3125 Z M 15.734375 -12.578125 C 15.703125 -13.085938 15.613281 -13.582031 15.46875 -14.0625 C 15.320312 -14.539062 15.097656 -14.960938 14.796875 -15.328125 C 14.492188 -15.703125 14.109375 -16.007812 13.640625 -16.25 C 13.171875 -16.488281 12.59375 -16.609375 11.90625 -16.609375 C 11.238281 -16.609375 10.664062 -16.492188 10.1875 -16.265625 C 9.71875 -16.046875 9.320312 -15.75 9 -15.375 C 8.675781 -15 8.425781 -14.566406 8.25 -14.078125 C 8.082031 -13.585938 7.960938 -13.085938 7.890625 -12.578125 Z M 15.734375 -12.578125 "/></g></g></g><g fill="#ffffff" fill-opacity="1"><g transform="translate(325.635711, 77.968721)"><g><path d="M 1.796875 -10.46875 C 1.796875 -11.988281 2.039062 -13.414062 2.53125 -14.75 C 3.019531 -16.09375 3.726562 -17.257812 4.65625 -18.25 C 5.582031 -19.25 6.707031 -20.039062 8.03125 -20.625 C 9.363281 -21.207031 10.878906 -21.5 12.578125 -21.5 C 13.703125 -21.5 14.726562 -21.398438 15.65625 -21.203125 C 16.582031 -21.003906 17.484375 -20.722656 18.359375 -20.359375 L 17.125 -15.609375 C 16.570312 -15.828125 15.960938 -16.015625 15.296875 -16.171875 C 14.628906 -16.328125 13.882812 -16.40625 13.0625 -16.40625 C 11.3125 -16.40625 10.003906 -15.859375 9.140625 -14.765625 C 8.273438 -13.679688 7.84375 -12.25 7.84375 -10.46875 C 7.84375 -8.582031 8.25 -7.125 9.0625 -6.09375 C 9.875 -5.0625 11.285156 -4.546875 13.296875 -4.546875 C 14.015625 -4.546875 14.785156 -4.609375 15.609375 -4.734375 C 16.429688 -4.867188 17.1875 -5.082031 17.875 -5.375 L 18.71875 -0.515625 C 18.03125 -0.222656 17.164062 0.0234375 16.125 0.234375 C 15.09375 0.453125 13.953125 0.5625 12.703125 0.5625 C 10.796875 0.5625 9.148438 0.273438 7.765625 -0.296875 C 6.390625 -0.867188 5.253906 -1.644531 4.359375 -2.625 C 3.472656 -3.613281 2.820312 -4.773438 2.40625 -6.109375 C 2 -7.453125 1.796875 -8.90625 1.796875 -10.46875 Z M 1.796875 -10.46875 "/></g></g></g><g fill="#ffffff" fill-opacity="1"><g transform="translate(345.548985, 77.968721)"><g><path d="M 20.671875 -0.71875 C 19.660156 -0.425781 18.359375 -0.15625 16.765625 0.09375 C 15.171875 0.351562 13.5 0.484375 11.75 0.484375 C 9.96875 0.484375 8.484375 0.242188 7.296875 -0.234375 C 6.117188 -0.710938 5.1875 -1.382812 4.5 -2.25 C 3.8125 -3.113281 3.320312 -4.140625 3.03125 -5.328125 C 2.738281 -6.523438 2.59375 -7.84375 2.59375 -9.28125 L 2.59375 -20.953125 L 8.515625 -20.953125 L 8.515625 -10 C 8.515625 -8.082031 8.765625 -6.695312 9.265625 -5.84375 C 9.773438 -5 10.722656 -4.578125 12.109375 -4.578125 C 12.535156 -4.578125 12.984375 -4.597656 13.453125 -4.640625 C 13.929688 -4.679688 14.359375 -4.726562 14.734375 -4.78125 L 14.734375 -20.953125 L 20.671875 -20.953125 Z M 20.671875 -0.71875 "/></g></g></g><g fill="#ffffff" fill-opacity="1"><g transform="translate(369.006825, 77.968721)"><g><path d="M 15.40625 -15.6875 C 14.875 -15.820312 14.25 -15.960938 13.53125 -16.109375 C 12.820312 -16.253906 12.054688 -16.328125 11.234375 -16.328125 C 10.859375 -16.328125 10.410156 -16.289062 9.890625 -16.21875 C 9.378906 -16.15625 8.988281 -16.085938 8.71875 -16.015625 L 8.71875 0 L 2.78125 0 L 2.78125 -19.828125 C 3.84375 -20.203125 5.097656 -20.554688 6.546875 -20.890625 C 7.992188 -21.222656 9.609375 -21.390625 11.390625 -21.390625 C 11.710938 -21.390625 12.097656 -21.367188 12.546875 -21.328125 C 12.992188 -21.285156 13.441406 -21.226562 13.890625 -21.15625 C 14.347656 -21.09375 14.800781 -21.015625 15.25 -20.921875 C 15.707031 -20.835938 16.09375 -20.726562 16.40625 -20.59375 Z M 15.40625 -15.6875 "/></g></g></g><g fill="#ffffff" fill-opacity="1"><g transform="translate(385.813624, 77.968721)"><g><path d="M 8.71875 0 L 2.78125 0 L 2.78125 -20.953125 L 8.71875 -20.953125 Z M 9.28125 -27 C 9.28125 -25.914062 8.925781 -25.0625 8.21875 -24.4375 C 7.519531 -23.8125 6.691406 -23.5 5.734375 -23.5 C 4.773438 -23.5 3.941406 -23.8125 3.234375 -24.4375 C 2.535156 -25.0625 2.1875 -25.914062 2.1875 -27 C 2.1875 -28.09375 2.535156 -28.953125 3.234375 -29.578125 C 3.941406 -30.203125 4.773438 -30.515625 5.734375 -30.515625 C 6.691406 -30.515625 7.519531 -30.203125 8.21875 -29.578125 C 8.925781 -28.953125 9.28125 -28.09375 9.28125 -27 Z M 9.28125 -27 "/></g></g></g><g fill="#ffffff" fill-opacity="1"><g transform="translate(397.323498, 77.968721)"><g><path d="M 2.59375 -26.171875 L 8.515625 -27.125 L 8.515625 -20.953125 L 15.65625 -20.953125 L 15.65625 -16.015625 L 8.515625 -16.015625 L 8.515625 -8.640625 C 8.515625 -7.390625 8.734375 -6.394531 9.171875 -5.65625 C 9.617188 -4.914062 10.503906 -4.546875 11.828125 -4.546875 C 12.460938 -4.546875 13.117188 -4.601562 13.796875 -4.71875 C 14.472656 -4.84375 15.09375 -5.007812 15.65625 -5.21875 L 16.484375 -0.59375 C 15.765625 -0.300781 14.96875 -0.0507812 14.09375 0.15625 C 13.21875 0.375 12.144531 0.484375 10.875 0.484375 C 9.25 0.484375 7.90625 0.265625 6.84375 -0.171875 C 5.78125 -0.617188 4.929688 -1.234375 4.296875 -2.015625 C 3.660156 -2.796875 3.21875 -3.742188 2.96875 -4.859375 C 2.71875 -5.972656 2.59375 -7.207031 2.59375 -8.5625 Z M 2.59375 -26.171875 "/></g></g></g><g fill="#ffffff" fill-opacity="1"><g transform="translate(415.006483, 77.968721)"><g><path d="M 21.390625 -20.953125 C 20.191406 -16.910156 18.941406 -13.125 17.640625 -9.59375 C 16.335938 -6.0625 14.914062 -2.640625 13.375 0.671875 C 12.820312 1.867188 12.265625 2.882812 11.703125 3.71875 C 11.148438 4.5625 10.539062 5.253906 9.875 5.796875 C 9.207031 6.335938 8.457031 6.734375 7.625 6.984375 C 6.789062 7.242188 5.816406 7.375 4.703125 7.375 C 3.773438 7.375 2.914062 7.285156 2.125 7.109375 C 1.34375 6.929688 0.703125 6.738281 0.203125 6.53125 L 1.234375 1.796875 C 1.847656 2.003906 2.390625 2.144531 2.859375 2.21875 C 3.335938 2.300781 3.84375 2.34375 4.375 2.34375 C 5.4375 2.34375 6.253906 2.054688 6.828125 1.484375 C 7.398438 0.921875 7.882812 0.132812 8.28125 -0.875 C 6.925781 -3.53125 5.570312 -6.507812 4.21875 -9.8125 C 2.863281 -13.125 1.585938 -16.835938 0.390625 -20.953125 L 6.6875 -20.953125 C 6.957031 -19.910156 7.269531 -18.785156 7.625 -17.578125 C 7.988281 -16.367188 8.367188 -15.144531 8.765625 -13.90625 C 9.160156 -12.675781 9.5625 -11.476562 9.96875 -10.3125 C 10.382812 -9.144531 10.78125 -8.082031 11.15625 -7.125 C 11.5 -8.082031 11.851562 -9.144531 12.21875 -10.3125 C 12.59375 -11.476562 12.957031 -12.675781 13.3125 -13.90625 C 13.675781 -15.144531 14.023438 -16.367188 14.359375 -17.578125 C 14.691406 -18.785156 14.988281 -19.910156 15.25 -20.953125 Z M 21.390625 -20.953125 "/></g></g></g><g fill="#ffffff" fill-opacity="1"><g transform="translate(436.791609, 77.968721)"><g/></g></g><g fill="#ffffff" fill-opacity="1"><g transform="translate(446.349987, 77.968721)"><g><path d="M 3.1875 -27.59375 L 9.40625 -27.59375 L 9.40625 0 L 3.1875 0 Z M 3.1875 -27.59375 "/></g></g></g><g fill="#ffffff" fill-opacity="1"><g transform="translate(458.935172, 77.968721)"><g><path d="M 2.78125 -20.234375 C 3.789062 -20.523438 5.09375 -20.796875 6.6875 -21.046875 C 8.28125 -21.296875 9.953125 -21.421875 11.703125 -21.421875 C 13.484375 -21.421875 14.960938 -21.1875 16.140625 -20.71875 C 17.328125 -20.257812 18.265625 -19.601562 18.953125 -18.75 C 19.648438 -17.90625 20.144531 -16.898438 20.4375 -15.734375 C 20.726562 -14.566406 20.875 -13.265625 20.875 -11.828125 L 20.875 0 L 14.9375 0 L 14.9375 -11.109375 C 14.9375 -13.023438 14.679688 -14.378906 14.171875 -15.171875 C 13.671875 -15.972656 12.726562 -16.375 11.34375 -16.375 C 10.925781 -16.375 10.476562 -16.351562 10 -16.3125 C 9.519531 -16.269531 9.09375 -16.222656 8.71875 -16.171875 L 8.71875 0 L 2.78125 0 Z M 2.78125 -20.234375 "/></g></g></g><g fill="#ffffff" fill-opacity="1"><g transform="translate(482.393024, 77.968721)"><g><path d="M 11.875 -30.90625 C 12.988281 -30.90625 14.007812 -30.789062 14.9375 -30.5625 C 15.863281 -30.34375 16.582031 -30.125 17.09375 -29.90625 L 15.9375 -25.171875 C 15.40625 -25.410156 14.828125 -25.585938 14.203125 -25.703125 C 13.578125 -25.828125 13 -25.890625 12.46875 -25.890625 C 11.75 -25.890625 11.144531 -25.789062 10.65625 -25.59375 C 10.164062 -25.394531 9.78125 -25.117188 9.5 -24.765625 C 9.21875 -24.421875 9.015625 -24.007812 8.890625 -23.53125 C 8.773438 -23.0625 8.71875 -22.546875 8.71875 -21.984375 L 8.71875 -20.953125 L 16.046875 -20.953125 L 16.046875 -16.015625 L 8.71875 -16.015625 L 8.71875 0 L 2.78125 0 L 2.78125 -22.0625 C 2.78125 -24.769531 3.546875 -26.921875 5.078125 -28.515625 C 6.609375 -30.109375 8.875 -30.90625 11.875 -30.90625 Z M 11.875 -30.90625 "/></g></g></g><g fill="#ffffff" fill-opacity="1"><g transform="translate(499.199823, 77.968721)"><g><path d="M 22.390625 -10.515625 C 22.390625 -8.867188 22.148438 -7.359375 21.671875 -5.984375 C 21.191406 -4.617188 20.5 -3.453125 19.59375 -2.484375 C 18.6875 -1.515625 17.601562 -0.765625 16.34375 -0.234375 C 15.082031 0.296875 13.671875 0.5625 12.109375 0.5625 C 10.566406 0.5625 9.164062 0.296875 7.90625 -0.234375 C 6.644531 -0.765625 5.5625 -1.515625 4.65625 -2.484375 C 3.757812 -3.453125 3.054688 -4.617188 2.546875 -5.984375 C 2.046875 -7.359375 1.796875 -8.867188 1.796875 -10.515625 C 1.796875 -12.160156 2.050781 -13.660156 2.5625 -15.015625 C 3.082031 -16.367188 3.800781 -17.519531 4.71875 -18.46875 C 5.632812 -19.425781 6.722656 -20.171875 7.984375 -20.703125 C 9.242188 -21.234375 10.617188 -21.5 12.109375 -21.5 C 13.617188 -21.5 15.003906 -21.234375 16.265625 -20.703125 C 17.523438 -20.171875 18.609375 -19.425781 19.515625 -18.46875 C 20.421875 -17.519531 21.125 -16.367188 21.625 -15.015625 C 22.132812 -13.660156 22.390625 -12.160156 22.390625 -10.515625 Z M 16.328125 -10.515625 C 16.328125 -12.347656 15.960938 -13.785156 15.234375 -14.828125 C 14.503906 -15.878906 13.460938 -16.40625 12.109375 -16.40625 C 10.753906 -16.40625 9.703125 -15.878906 8.953125 -14.828125 C 8.210938 -13.785156 7.84375 -12.347656 7.84375 -10.515625 C 7.84375 -8.679688 8.210938 -7.226562 8.953125 -6.15625 C 9.703125 -5.082031 10.753906 -4.546875 12.109375 -4.546875 C 13.460938 -4.546875 14.503906 -5.082031 15.234375 -6.15625 C 15.960938 -7.226562 16.328125 -8.679688 16.328125 -10.515625 Z M 16.328125 -10.515625 "/></g></g></g><g fill="#ffffff" fill-opacity="1"><g transform="translate(523.374538, 77.968721)"><g><path d="M 15.40625 -15.6875 C 14.875 -15.820312 14.25 -15.960938 13.53125 -16.109375 C 12.820312 -16.253906 12.054688 -16.328125 11.234375 -16.328125 C 10.859375 -16.328125 10.410156 -16.289062 9.890625 -16.21875 C 9.378906 -16.15625 8.988281 -16.085938 8.71875 -16.015625 L 8.71875 0 L 2.78125 0 L 2.78125 -19.828125 C 3.84375 -20.203125 5.097656 -20.554688 6.546875 -20.890625 C 7.992188 -21.222656 9.609375 -21.390625 11.390625 -21.390625 C 11.710938 -21.390625 12.097656 -21.367188 12.546875 -21.328125 C 12.992188 -21.285156 13.441406 -21.226562 13.890625 -21.15625 C 14.347656 -21.09375 14.800781 -21.015625 15.25 -20.921875 C 15.707031 -20.835938 16.09375 -20.726562 16.40625 -20.59375 Z M 15.40625 -15.6875 "/></g></g></g><g fill="#ffffff" fill-opacity="1"><g transform="translate(540.181337, 77.968721)"><g><path d="M 14.296875 -11.109375 C 14.296875 -13.023438 14.050781 -14.378906 13.5625 -15.171875 C 13.070312 -15.972656 12.226562 -16.375 11.03125 -16.375 C 10.65625 -16.375 10.269531 -16.351562 9.875 -16.3125 C 9.476562 -16.269531 9.09375 -16.222656 8.71875 -16.171875 L 8.71875 0 L 2.78125 0 L 2.78125 -20.234375 C 3.289062 -20.367188 3.882812 -20.507812 4.5625 -20.65625 C 5.238281 -20.800781 5.953125 -20.929688 6.703125 -21.046875 C 7.460938 -21.171875 8.238281 -21.265625 9.03125 -21.328125 C 9.832031 -21.390625 10.617188 -21.421875 11.390625 -21.421875 C 12.898438 -21.421875 14.125 -21.226562 15.0625 -20.84375 C 16.007812 -20.457031 16.789062 -20 17.40625 -19.46875 C 18.25 -20.082031 19.222656 -20.5625 20.328125 -20.90625 C 21.429688 -21.25 22.445312 -21.421875 23.375 -21.421875 C 25.050781 -21.421875 26.425781 -21.1875 27.5 -20.71875 C 28.570312 -20.257812 29.425781 -19.601562 30.0625 -18.75 C 30.707031 -17.90625 31.148438 -16.898438 31.390625 -15.734375 C 31.628906 -14.566406 31.75 -13.265625 31.75 -11.828125 L 31.75 0 L 25.8125 0 L 25.8125 -11.109375 C 25.8125 -13.023438 25.5625 -14.378906 25.0625 -15.171875 C 24.570312 -15.972656 23.734375 -16.375 22.546875 -16.375 C 22.222656 -16.375 21.773438 -16.289062 21.203125 -16.125 C 20.640625 -15.96875 20.171875 -15.769531 19.796875 -15.53125 C 19.984375 -14.914062 20.101562 -14.269531 20.15625 -13.59375 C 20.207031 -12.914062 20.234375 -12.195312 20.234375 -11.4375 L 20.234375 0 L 14.296875 0 Z M 14.296875 -11.109375 "/></g></g></g><g fill="#ffffff" fill-opacity="1"><g transform="translate(574.51181, 77.968721)"><g><path d="M 10.796875 -4.140625 C 11.378906 -4.140625 11.9375 -4.148438 12.46875 -4.171875 C 13 -4.203125 13.421875 -4.242188 13.734375 -4.296875 L 13.734375 -8.796875 C 13.492188 -8.847656 13.132812 -8.898438 12.65625 -8.953125 C 12.1875 -9.015625 11.75 -9.046875 11.34375 -9.046875 C 10.789062 -9.046875 10.269531 -9.007812 9.78125 -8.9375 C 9.289062 -8.875 8.859375 -8.75 8.484375 -8.5625 C 8.109375 -8.375 7.8125 -8.117188 7.59375 -7.796875 C 7.382812 -7.484375 7.28125 -7.085938 7.28125 -6.609375 C 7.28125 -5.679688 7.59375 -5.035156 8.21875 -4.671875 C 8.84375 -4.316406 9.703125 -4.140625 10.796875 -4.140625 Z M 10.3125 -21.5 C 12.0625 -21.5 13.519531 -21.300781 14.6875 -20.90625 C 15.863281 -20.507812 16.800781 -19.9375 17.5 -19.1875 C 18.207031 -18.445312 18.707031 -17.546875 19 -16.484375 C 19.289062 -15.421875 19.4375 -14.238281 19.4375 -12.9375 L 19.4375 -0.59375 C 18.582031 -0.40625 17.398438 -0.1875 15.890625 0.0625 C 14.378906 0.3125 12.546875 0.4375 10.390625 0.4375 C 9.035156 0.4375 7.804688 0.316406 6.703125 0.078125 C 5.609375 -0.160156 4.660156 -0.550781 3.859375 -1.09375 C 3.066406 -1.632812 2.457031 -2.34375 2.03125 -3.21875 C 1.601562 -4.101562 1.390625 -5.179688 1.390625 -6.453125 C 1.390625 -7.671875 1.632812 -8.703125 2.125 -9.546875 C 2.625 -10.398438 3.285156 -11.078125 4.109375 -11.578125 C 4.929688 -12.085938 5.867188 -12.457031 6.921875 -12.6875 C 7.984375 -12.914062 9.085938 -13.03125 10.234375 -13.03125 C 11.003906 -13.03125 11.6875 -12.992188 12.28125 -12.921875 C 12.882812 -12.859375 13.367188 -12.773438 13.734375 -12.671875 L 13.734375 -13.21875 C 13.734375 -14.226562 13.425781 -15.035156 12.8125 -15.640625 C 12.207031 -16.253906 11.148438 -16.5625 9.640625 -16.5625 C 8.628906 -16.5625 7.628906 -16.488281 6.640625 -16.34375 C 5.660156 -16.195312 4.816406 -15.992188 4.109375 -15.734375 L 3.34375 -20.515625 C 3.6875 -20.617188 4.117188 -20.726562 4.640625 -20.84375 C 5.160156 -20.96875 5.722656 -21.078125 6.328125 -21.171875 C 6.941406 -21.265625 7.585938 -21.34375 8.265625 -21.40625 C 8.941406 -21.46875 9.625 -21.5 10.3125 -21.5 Z M 10.3125 -21.5 "/></g></g></g><g fill="#ffffff" fill-opacity="1"><g transform="translate(596.535901, 77.968721)"><g><path d="M 2.59375 -26.171875 L 8.515625 -27.125 L 8.515625 -20.953125 L 15.65625 -20.953125 L 15.65625 -16.015625 L 8.515625 -16.015625 L 8.515625 -8.640625 C 8.515625 -7.390625 8.734375 -6.394531 9.171875 -5.65625 C 9.617188 -4.914062 10.503906 -4.546875 11.828125 -4.546875 C 12.460938 -4.546875 13.117188 -4.601562 13.796875 -4.71875 C 14.472656 -4.84375 15.09375 -5.007812 15.65625 -5.21875 L 16.484375 -0.59375 C 15.765625 -0.300781 14.96875 -0.0507812 14.09375 0.15625 C 13.21875 0.375 12.144531 0.484375 10.875 0.484375 C 9.25 0.484375 7.90625 0.265625 6.84375 -0.171875 C 5.78125 -0.617188 4.929688 -1.234375 4.296875 -2.015625 C 3.660156 -2.796875 3.21875 -3.742188 2.96875 -4.859375 C 2.71875 -5.972656 2.59375 -7.207031 2.59375 -8.5625 Z M 2.59375 -26.171875 "/></g></g></g><g fill="#ffffff" fill-opacity="1"><g transform="translate(614.218885, 77.968721)"><g><path d="M 8.71875 0 L 2.78125 0 L 2.78125 -20.953125 L 8.71875 -20.953125 Z M 9.28125 -27 C 9.28125 -25.914062 8.925781 -25.0625 8.21875 -24.4375 C 7.519531 -23.8125 6.691406 -23.5 5.734375 -23.5 C 4.773438 -23.5 3.941406 -23.8125 3.234375 -24.4375 C 2.535156 -25.0625 2.1875 -25.914062 2.1875 -27 C 2.1875 -28.09375 2.535156 -28.953125 3.234375 -29.578125 C 3.941406 -30.203125 4.773438 -30.515625 5.734375 -30.515625 C 6.691406 -30.515625 7.519531 -30.203125 8.21875 -29.578125 C 8.925781 -28.953125 9.28125 -28.09375 9.28125 -27 Z M 9.28125 -27 "/></g></g></g><g fill="#ffffff" fill-opacity="1"><g transform="translate(625.728759, 77.968721)"><g><path d="M 22.390625 -10.515625 C 22.390625 -8.867188 22.148438 -7.359375 21.671875 -5.984375 C 21.191406 -4.617188 20.5 -3.453125 19.59375 -2.484375 C 18.6875 -1.515625 17.601562 -0.765625 16.34375 -0.234375 C 15.082031 0.296875 13.671875 0.5625 12.109375 0.5625 C 10.566406 0.5625 9.164062 0.296875 7.90625 -0.234375 C 6.644531 -0.765625 5.5625 -1.515625 4.65625 -2.484375 C 3.757812 -3.453125 3.054688 -4.617188 2.546875 -5.984375 C 2.046875 -7.359375 1.796875 -8.867188 1.796875 -10.515625 C 1.796875 -12.160156 2.050781 -13.660156 2.5625 -15.015625 C 3.082031 -16.367188 3.800781 -17.519531 4.71875 -18.46875 C 5.632812 -19.425781 6.722656 -20.171875 7.984375 -20.703125 C 9.242188 -21.234375 10.617188 -21.5 12.109375 -21.5 C 13.617188 -21.5 15.003906 -21.234375 16.265625 -20.703125 C 17.523438 -20.171875 18.609375 -19.425781 19.515625 -18.46875 C 20.421875 -17.519531 21.125 -16.367188 21.625 -15.015625 C 22.132812 -13.660156 22.390625 -12.160156 22.390625 -10.515625 Z M 16.328125 -10.515625 C 16.328125 -12.347656 15.960938 -13.785156 15.234375 -14.828125 C 14.503906 -15.878906 13.460938 -16.40625 12.109375 -16.40625 C 10.753906 -16.40625 9.703125 -15.878906 8.953125 -14.828125 C 8.210938 -13.785156 7.84375 -12.347656 7.84375 -10.515625 C 7.84375 -8.679688 8.210938 -7.226562 8.953125 -6.15625 C 9.703125 -5.082031 10.753906 -4.546875 12.109375 -4.546875 C 13.460938 -4.546875 14.503906 -5.082031 15.234375 -6.15625 C 15.960938 -7.226562 16.328125 -8.679688 16.328125 -10.515625 Z M 16.328125 -10.515625 "/></g></g></g><g fill="#ffffff" fill-opacity="1"><g transform="translate(649.903474, 77.968721)"><g><path d="M 2.78125 -20.234375 C 3.789062 -20.523438 5.09375 -20.796875 6.6875 -21.046875 C 8.28125 -21.296875 9.953125 -21.421875 11.703125 -21.421875 C 13.484375 -21.421875 14.960938 -21.1875 16.140625 -20.71875 C 17.328125 -20.257812 18.265625 -19.601562 18.953125 -18.75 C 19.648438 -17.90625 20.144531 -16.898438 20.4375 -15.734375 C 20.726562 -14.566406 20.875 -13.265625 20.875 -11.828125 L 20.875 0 L 14.9375 0 L 14.9375 -11.109375 C 14.9375 -13.023438 14.679688 -14.378906 14.171875 -15.171875 C 13.671875 -15.972656 12.726562 -16.375 11.34375 -16.375 C 10.925781 -16.375 10.476562 -16.351562 10 -16.3125 C 9.519531 -16.269531 9.09375 -16.222656 8.71875 -16.171875 L 8.71875 0 L 2.78125 0 Z M 2.78125 -20.234375 "/></g></g></g><g fill="#ffffff" fill-opacity="1"><g transform="translate(279.197962, 125.267454)"><g><path d="M 10.515625 -27.59375 C 10.992188 -26.71875 11.546875 -25.632812 12.171875 -24.34375 C 12.796875 -23.0625 13.445312 -21.671875 14.125 -20.171875 C 14.800781 -18.671875 15.46875 -17.132812 16.125 -15.5625 C 16.789062 -14 17.414062 -12.53125 18 -11.15625 C 18.582031 -12.53125 19.207031 -14 19.875 -15.5625 C 20.539062 -17.132812 21.210938 -18.671875 21.890625 -20.171875 C 22.566406 -21.671875 23.210938 -23.0625 23.828125 -24.34375 C 24.453125 -25.632812 25.003906 -26.71875 25.484375 -27.59375 L 31.140625 -27.59375 C 31.410156 -25.769531 31.65625 -23.722656 31.875 -21.453125 C 32.101562 -19.179688 32.300781 -16.816406 32.46875 -14.359375 C 32.644531 -11.898438 32.804688 -9.4375 32.953125 -6.96875 C 33.097656 -4.5 33.226562 -2.175781 33.34375 0 L 27.28125 0 C 27.195312 -2.675781 27.085938 -5.59375 26.953125 -8.75 C 26.828125 -11.914062 26.628906 -15.109375 26.359375 -18.328125 C 25.890625 -17.203125 25.359375 -15.960938 24.765625 -14.609375 C 24.179688 -13.253906 23.601562 -11.898438 23.03125 -10.546875 C 22.46875 -9.191406 21.921875 -7.894531 21.390625 -6.65625 C 20.859375 -5.425781 20.40625 -4.375 20.03125 -3.5 L 15.6875 -3.5 C 15.320312 -4.375 14.875 -5.425781 14.34375 -6.65625 C 13.8125 -7.894531 13.257812 -9.191406 12.6875 -10.546875 C 12.113281 -11.898438 11.535156 -13.253906 10.953125 -14.609375 C 10.367188 -15.960938 9.835938 -17.203125 9.359375 -18.328125 C 9.097656 -15.109375 8.898438 -11.914062 8.765625 -8.75 C 8.628906 -5.59375 8.519531 -2.675781 8.4375 0 L 2.390625 0 C 2.492188 -2.175781 2.617188 -4.5 2.765625 -6.96875 C 2.910156 -9.4375 3.066406 -11.898438 3.234375 -14.359375 C 3.410156 -16.816406 3.613281 -19.179688 3.84375 -21.453125 C 4.070312 -23.722656 4.316406 -25.769531 4.578125 -27.59375 Z M 10.515625 -27.59375 "/></g></g></g><g fill="#ffffff" fill-opacity="1"><g transform="translate(314.922378, 125.267454)"><g><path d="M 10.796875 -4.140625 C 11.378906 -4.140625 11.9375 -4.148438 12.46875 -4.171875 C 13 -4.203125 13.421875 -4.242188 13.734375 -4.296875 L 13.734375 -8.796875 C 13.492188 -8.847656 13.132812 -8.898438 12.65625 -8.953125 C 12.1875 -9.015625 11.75 -9.046875 11.34375 -9.046875 C 10.789062 -9.046875 10.269531 -9.007812 9.78125 -8.9375 C 9.289062 -8.875 8.859375 -8.75 8.484375 -8.5625 C 8.109375 -8.375 7.8125 -8.117188 7.59375 -7.796875 C 7.382812 -7.484375 7.28125 -7.085938 7.28125 -6.609375 C 7.28125 -5.679688 7.59375 -5.035156 8.21875 -4.671875 C 8.84375 -4.316406 9.703125 -4.140625 10.796875 -4.140625 Z M 10.3125 -21.5 C 12.0625 -21.5 13.519531 -21.300781 14.6875 -20.90625 C 15.863281 -20.507812 16.800781 -19.9375 17.5 -19.1875 C 18.207031 -18.445312 18.707031 -17.546875 19 -16.484375 C 19.289062 -15.421875 19.4375 -14.238281 19.4375 -12.9375 L 19.4375 -0.59375 C 18.582031 -0.40625 17.398438 -0.1875 15.890625 0.0625 C 14.378906 0.3125 12.546875 0.4375 10.390625 0.4375 C 9.035156 0.4375 7.804688 0.316406 6.703125 0.078125 C 5.609375 -0.160156 4.660156 -0.550781 3.859375 -1.09375 C 3.066406 -1.632812 2.457031 -2.34375 2.03125 -3.21875 C 1.601562 -4.101562 1.390625 -5.179688 1.390625 -6.453125 C 1.390625 -7.671875 1.632812 -8.703125 2.125 -9.546875 C 2.625 -10.398438 3.285156 -11.078125 4.109375 -11.578125 C 4.929688 -12.085938 5.867188 -12.457031 6.921875 -12.6875 C 7.984375 -12.914062 9.085938 -13.03125 10.234375 -13.03125 C 11.003906 -13.03125 11.6875 -12.992188 12.28125 -12.921875 C 12.882812 -12.859375 13.367188 -12.773438 13.734375 -12.671875 L 13.734375 -13.21875 C 13.734375 -14.226562 13.425781 -15.035156 12.8125 -15.640625 C 12.207031 -16.253906 11.148438 -16.5625 9.640625 -16.5625 C 8.628906 -16.5625 7.628906 -16.488281 6.640625 -16.34375 C 5.660156 -16.195312 4.816406 -15.992188 4.109375 -15.734375 L 3.34375 -20.515625 C 3.6875 -20.617188 4.117188 -20.726562 4.640625 -20.84375 C 5.160156 -20.96875 5.722656 -21.078125 6.328125 -21.171875 C 6.941406 -21.265625 7.585938 -21.34375 8.265625 -21.40625 C 8.941406 -21.46875 9.625 -21.5 10.3125 -21.5 Z M 10.3125 -21.5 "/></g></g></g><g fill="#ffffff" fill-opacity="1"><g transform="translate(336.946459, 125.267454)"><g><path d="M 2.78125 -20.234375 C 3.789062 -20.523438 5.09375 -20.796875 6.6875 -21.046875 C 8.28125 -21.296875 9.953125 -21.421875 11.703125 -21.421875 C 13.484375 -21.421875 14.960938 -21.1875 16.140625 -20.71875 C 17.328125 -20.257812 18.265625 -19.601562 18.953125 -18.75 C 19.648438 -17.90625 20.144531 -16.898438 20.4375 -15.734375 C 20.726562 -14.566406 20.875 -13.265625 20.875 -11.828125 L 20.875 0 L 14.9375 0 L 14.9375 -11.109375 C 14.9375 -13.023438 14.679688 -14.378906 14.171875 -15.171875 C 13.671875 -15.972656 12.726562 -16.375 11.34375 -16.375 C 10.925781 -16.375 10.476562 -16.351562 10 -16.3125 C 9.519531 -16.269531 9.09375 -16.222656 8.71875 -16.171875 L 8.71875 0 L 2.78125 0 Z M 2.78125 -20.234375 "/></g></g></g><g fill="#ffffff" fill-opacity="1"><g transform="translate(360.404299, 125.267454)"><g><path d="M 10.796875 -4.140625 C 11.378906 -4.140625 11.9375 -4.148438 12.46875 -4.171875 C 13 -4.203125 13.421875 -4.242188 13.734375 -4.296875 L 13.734375 -8.796875 C 13.492188 -8.847656 13.132812 -8.898438 12.65625 -8.953125 C 12.1875 -9.015625 11.75 -9.046875 11.34375 -9.046875 C 10.789062 -9.046875 10.269531 -9.007812 9.78125 -8.9375 C 9.289062 -8.875 8.859375 -8.75 8.484375 -8.5625 C 8.109375 -8.375 7.8125 -8.117188 7.59375 -7.796875 C 7.382812 -7.484375 7.28125 -7.085938 7.28125 -6.609375 C 7.28125 -5.679688 7.59375 -5.035156 8.21875 -4.671875 C 8.84375 -4.316406 9.703125 -4.140625 10.796875 -4.140625 Z M 10.3125 -21.5 C 12.0625 -21.5 13.519531 -21.300781 14.6875 -20.90625 C 15.863281 -20.507812 16.800781 -19.9375 17.5 -19.1875 C 18.207031 -18.445312 18.707031 -17.546875 19 -16.484375 C 19.289062 -15.421875 19.4375 -14.238281 19.4375 -12.9375 L 19.4375 -0.59375 C 18.582031 -0.40625 17.398438 -0.1875 15.890625 0.0625 C 14.378906 0.3125 12.546875 0.4375 10.390625 0.4375 C 9.035156 0.4375 7.804688 0.316406 6.703125 0.078125 C 5.609375 -0.160156 4.660156 -0.550781 3.859375 -1.09375 C 3.066406 -1.632812 2.457031 -2.34375 2.03125 -3.21875 C 1.601562 -4.101562 1.390625 -5.179688 1.390625 -6.453125 C 1.390625 -7.671875 1.632812 -8.703125 2.125 -9.546875 C 2.625 -10.398438 3.285156 -11.078125 4.109375 -11.578125 C 4.929688 -12.085938 5.867188 -12.457031 6.921875 -12.6875 C 7.984375 -12.914062 9.085938 -13.03125 10.234375 -13.03125 C 11.003906 -13.03125 11.6875 -12.992188 12.28125 -12.921875 C 12.882812 -12.859375 13.367188 -12.773438 13.734375 -12.671875 L 13.734375 -13.21875 C 13.734375 -14.226562 13.425781 -15.035156 12.8125 -15.640625 C 12.207031 -16.253906 11.148438 -16.5625 9.640625 -16.5625 C 8.628906 -16.5625 7.628906 -16.488281 6.640625 -16.34375 C 5.660156 -16.195312 4.816406 -15.992188 4.109375 -15.734375 L 3.34375 -20.515625 C 3.6875 -20.617188 4.117188 -20.726562 4.640625 -20.84375 C 5.160156 -20.96875 5.722656 -21.078125 6.328125 -21.171875 C 6.941406 -21.265625 7.585938 -21.34375 8.265625 -21.40625 C 8.941406 -21.46875 9.625 -21.5 10.3125 -21.5 Z M 10.3125 -21.5 "/></g></g></g><g fill="#ffffff" fill-opacity="1"><g transform="translate(382.428379, 125.267454)"><g><path d="M 7.84375 -11.15625 C 7.84375 -7.832031 9.1875 -6.171875 11.875 -6.171875 C 12.476562 -6.171875 13.046875 -6.25 13.578125 -6.40625 C 14.109375 -6.570312 14.5625 -6.757812 14.9375 -6.96875 L 14.9375 -16.453125 C 14.644531 -16.503906 14.296875 -16.546875 13.890625 -16.578125 C 13.492188 -16.617188 13.03125 -16.640625 12.5 -16.640625 C 10.9375 -16.640625 9.769531 -16.125 9 -15.09375 C 8.226562 -14.0625 7.84375 -12.75 7.84375 -11.15625 Z M 20.875 -2.625 C 20.875 0.800781 20.003906 3.34375 18.265625 5 C 16.523438 6.65625 13.835938 7.484375 10.203125 7.484375 C 8.921875 7.484375 7.640625 7.367188 6.359375 7.140625 C 5.085938 6.921875 3.910156 6.625 2.828125 6.25 L 3.859375 1.28125 C 4.785156 1.644531 5.757812 1.929688 6.78125 2.140625 C 7.8125 2.359375 8.976562 2.46875 10.28125 2.46875 C 11.976562 2.46875 13.175781 2.09375 13.875 1.34375 C 14.582031 0.601562 14.9375 -0.347656 14.9375 -1.515625 L 14.9375 -2.265625 C 14.300781 -1.972656 13.644531 -1.753906 12.96875 -1.609375 C 12.289062 -1.460938 11.550781 -1.390625 10.75 -1.390625 C 7.851562 -1.390625 5.632812 -2.242188 4.09375 -3.953125 C 2.5625 -5.671875 1.796875 -8.070312 1.796875 -11.15625 C 1.796875 -12.695312 2.03125 -14.097656 2.5 -15.359375 C 2.976562 -16.617188 3.675781 -17.695312 4.59375 -18.59375 C 5.507812 -19.5 6.628906 -20.195312 7.953125 -20.6875 C 9.285156 -21.175781 10.789062 -21.421875 12.46875 -21.421875 C 13.1875 -21.421875 13.921875 -21.390625 14.671875 -21.328125 C 15.429688 -21.265625 16.179688 -21.175781 16.921875 -21.0625 C 17.671875 -20.957031 18.382812 -20.832031 19.0625 -20.6875 C 19.738281 -20.539062 20.34375 -20.390625 20.875 -20.234375 Z M 20.875 -2.625 "/></g></g></g><g fill="#ffffff" fill-opacity="1"><g transform="translate(406.085346, 125.267454)"><g><path d="M 1.796875 -10.3125 C 1.796875 -12.175781 2.078125 -13.800781 2.640625 -15.1875 C 3.210938 -16.582031 3.960938 -17.742188 4.890625 -18.671875 C 5.828125 -19.609375 6.898438 -20.3125 8.109375 -20.78125 C 9.316406 -21.257812 10.554688 -21.5 11.828125 -21.5 C 14.804688 -21.5 17.15625 -20.585938 18.875 -18.765625 C 20.601562 -16.953125 21.46875 -14.28125 21.46875 -10.75 C 21.46875 -10.40625 21.453125 -10.023438 21.421875 -9.609375 C 21.398438 -9.203125 21.375 -8.835938 21.34375 -8.515625 L 7.890625 -8.515625 C 8.015625 -7.296875 8.582031 -6.328125 9.59375 -5.609375 C 10.601562 -4.898438 11.957031 -4.546875 13.65625 -4.546875 C 14.75 -4.546875 15.816406 -4.644531 16.859375 -4.84375 C 17.910156 -5.039062 18.769531 -5.285156 19.4375 -5.578125 L 20.234375 -0.75 C 19.910156 -0.59375 19.484375 -0.4375 18.953125 -0.28125 C 18.421875 -0.125 17.828125 0.0078125 17.171875 0.125 C 16.523438 0.25 15.832031 0.351562 15.09375 0.4375 C 14.351562 0.519531 13.609375 0.5625 12.859375 0.5625 C 10.972656 0.5625 9.332031 0.285156 7.9375 -0.265625 C 6.550781 -0.828125 5.398438 -1.59375 4.484375 -2.5625 C 3.566406 -3.53125 2.890625 -4.675781 2.453125 -6 C 2.015625 -7.332031 1.796875 -8.769531 1.796875 -10.3125 Z M 15.734375 -12.578125 C 15.703125 -13.085938 15.613281 -13.582031 15.46875 -14.0625 C 15.320312 -14.539062 15.097656 -14.960938 14.796875 -15.328125 C 14.492188 -15.703125 14.109375 -16.007812 13.640625 -16.25 C 13.171875 -16.488281 12.59375 -16.609375 11.90625 -16.609375 C 11.238281 -16.609375 10.664062 -16.492188 10.1875 -16.265625 C 9.71875 -16.046875 9.320312 -15.75 9 -15.375 C 8.675781 -15 8.425781 -14.566406 8.25 -14.078125 C 8.082031 -13.585938 7.960938 -13.085938 7.890625 -12.578125 Z M 15.734375 -12.578125 "/></g></g></g><g fill="#ffffff" fill-opacity="1"><g transform="translate(429.344048, 125.267454)"><g><path d="M 14.296875 -11.109375 C 14.296875 -13.023438 14.050781 -14.378906 13.5625 -15.171875 C 13.070312 -15.972656 12.226562 -16.375 11.03125 -16.375 C 10.65625 -16.375 10.269531 -16.351562 9.875 -16.3125 C 9.476562 -16.269531 9.09375 -16.222656 8.71875 -16.171875 L 8.71875 0 L 2.78125 0 L 2.78125 -20.234375 C 3.289062 -20.367188 3.882812 -20.507812 4.5625 -20.65625 C 5.238281 -20.800781 5.953125 -20.929688 6.703125 -21.046875 C 7.460938 -21.171875 8.238281 -21.265625 9.03125 -21.328125 C 9.832031 -21.390625 10.617188 -21.421875 11.390625 -21.421875 C 12.898438 -21.421875 14.125 -21.226562 15.0625 -20.84375 C 16.007812 -20.457031 16.789062 -20 17.40625 -19.46875 C 18.25 -20.082031 19.222656 -20.5625 20.328125 -20.90625 C 21.429688 -21.25 22.445312 -21.421875 23.375 -21.421875 C 25.050781 -21.421875 26.425781 -21.1875 27.5 -20.71875 C 28.570312 -20.257812 29.425781 -19.601562 30.0625 -18.75 C 30.707031 -17.90625 31.148438 -16.898438 31.390625 -15.734375 C 31.628906 -14.566406 31.75 -13.265625 31.75 -11.828125 L 31.75 0 L 25.8125 0 L 25.8125 -11.109375 C 25.8125 -13.023438 25.5625 -14.378906 25.0625 -15.171875 C 24.570312 -15.972656 23.734375 -16.375 22.546875 -16.375 C 22.222656 -16.375 21.773438 -16.289062 21.203125 -16.125 C 20.640625 -15.96875 20.171875 -15.769531 19.796875 -15.53125 C 19.984375 -14.914062 20.101562 -14.269531 20.15625 -13.59375 C 20.207031 -12.914062 20.234375 -12.195312 20.234375 -11.4375 L 20.234375 0 L 14.296875 0 Z M 14.296875 -11.109375 "/></g></g></g><g fill="#ffffff" fill-opacity="1"><g transform="translate(463.674532, 125.267454)"><g><path d="M 1.796875 -10.3125 C 1.796875 -12.175781 2.078125 -13.800781 2.640625 -15.1875 C 3.210938 -16.582031 3.960938 -17.742188 4.890625 -18.671875 C 5.828125 -19.609375 6.898438 -20.3125 8.109375 -20.78125 C 9.316406 -21.257812 10.554688 -21.5 11.828125 -21.5 C 14.804688 -21.5 17.15625 -20.585938 18.875 -18.765625 C 20.601562 -16.953125 21.46875 -14.28125 21.46875 -10.75 C 21.46875 -10.40625 21.453125 -10.023438 21.421875 -9.609375 C 21.398438 -9.203125 21.375 -8.835938 21.34375 -8.515625 L 7.890625 -8.515625 C 8.015625 -7.296875 8.582031 -6.328125 9.59375 -5.609375 C 10.601562 -4.898438 11.957031 -4.546875 13.65625 -4.546875 C 14.75 -4.546875 15.816406 -4.644531 16.859375 -4.84375 C 17.910156 -5.039062 18.769531 -5.285156 19.4375 -5.578125 L 20.234375 -0.75 C 19.910156 -0.59375 19.484375 -0.4375 18.953125 -0.28125 C 18.421875 -0.125 17.828125 0.0078125 17.171875 0.125 C 16.523438 0.25 15.832031 0.351562 15.09375 0.4375 C 14.351562 0.519531 13.609375 0.5625 12.859375 0.5625 C 10.972656 0.5625 9.332031 0.285156 7.9375 -0.265625 C 6.550781 -0.828125 5.398438 -1.59375 4.484375 -2.5625 C 3.566406 -3.53125 2.890625 -4.675781 2.453125 -6 C 2.015625 -7.332031 1.796875 -8.769531 1.796875 -10.3125 Z M 15.734375 -12.578125 C 15.703125 -13.085938 15.613281 -13.582031 15.46875 -14.0625 C 15.320312 -14.539062 15.097656 -14.960938 14.796875 -15.328125 C 14.492188 -15.703125 14.109375 -16.007812 13.640625 -16.25 C 13.171875 -16.488281 12.59375 -16.609375 11.90625 -16.609375 C 11.238281 -16.609375 10.664062 -16.492188 10.1875 -16.265625 C 9.71875 -16.046875 9.320312 -15.75 9 -15.375 C 8.675781 -15 8.425781 -14.566406 8.25 -14.078125 C 8.082031 -13.585938 7.960938 -13.085938 7.890625 -12.578125 Z M 15.734375 -12.578125 "/></g></g></g><g fill="#ffffff" fill-opacity="1"><g transform="translate(486.933234, 125.267454)"><g><path d="M 2.78125 -20.234375 C 3.789062 -20.523438 5.09375 -20.796875 6.6875 -21.046875 C 8.28125 -21.296875 9.953125 -21.421875 11.703125 -21.421875 C 13.484375 -21.421875 14.960938 -21.1875 16.140625 -20.71875 C 17.328125 -20.257812 18.265625 -19.601562 18.953125 -18.75 C 19.648438 -17.90625 20.144531 -16.898438 20.4375 -15.734375 C 20.726562 -14.566406 20.875 -13.265625 20.875 -11.828125 L 20.875 0 L 14.9375 0 L 14.9375 -11.109375 C 14.9375 -13.023438 14.679688 -14.378906 14.171875 -15.171875 C 13.671875 -15.972656 12.726562 -16.375 11.34375 -16.375 C 10.925781 -16.375 10.476562 -16.351562 10 -16.3125 C 9.519531 -16.269531 9.09375 -16.222656 8.71875 -16.171875 L 8.71875 0 L 2.78125 0 Z M 2.78125 -20.234375 "/></g></g></g><g fill="#ffffff" fill-opacity="1"><g transform="translate(510.391075, 125.267454)"><g><path d="M 2.59375 -26.171875 L 8.515625 -27.125 L 8.515625 -20.953125 L 15.65625 -20.953125 L 15.65625 -16.015625 L 8.515625 -16.015625 L 8.515625 -8.640625 C 8.515625 -7.390625 8.734375 -6.394531 9.171875 -5.65625 C 9.617188 -4.914062 10.503906 -4.546875 11.828125 -4.546875 C 12.460938 -4.546875 13.117188 -4.601562 13.796875 -4.71875 C 14.472656 -4.84375 15.09375 -5.007812 15.65625 -5.21875 L 16.484375 -0.59375 C 15.765625 -0.300781 14.96875 -0.0507812 14.09375 0.15625 C 13.21875 0.375 12.144531 0.484375 10.875 0.484375 C 9.25 0.484375 7.90625 0.265625 6.84375 -0.171875 C 5.78125 -0.617188 4.929688 -1.234375 4.296875 -2.015625 C 3.660156 -2.796875 3.21875 -3.742188 2.96875 -4.859375 C 2.71875 -5.972656 2.59375 -7.207031 2.59375 -8.5625 Z M 2.59375 -26.171875 "/></g></g></g><g fill="#ffffff" fill-opacity="1"><g transform="translate(528.074059, 125.267454)"><g/></g></g><g fill="#ffffff" fill-opacity="1"><g transform="translate(537.632436, 125.267454)"><g><path d="M 10.71875 -4.734375 C 11.59375 -4.734375 12.3125 -4.804688 12.875 -4.953125 C 13.445312 -5.097656 13.90625 -5.296875 14.25 -5.546875 C 14.601562 -5.804688 14.84375 -6.109375 14.96875 -6.453125 C 15.101562 -6.796875 15.171875 -7.179688 15.171875 -7.609375 C 15.171875 -8.515625 14.742188 -9.265625 13.890625 -9.859375 C 13.046875 -10.453125 11.585938 -11.097656 9.515625 -11.796875 C 8.617188 -12.109375 7.71875 -12.46875 6.8125 -12.875 C 5.90625 -13.289062 5.09375 -13.8125 4.375 -14.4375 C 3.664062 -15.0625 3.082031 -15.816406 2.625 -16.703125 C 2.175781 -17.597656 1.953125 -18.679688 1.953125 -19.953125 C 1.953125 -21.222656 2.191406 -22.367188 2.671875 -23.390625 C 3.148438 -24.421875 3.828125 -25.289062 4.703125 -26 C 5.578125 -26.71875 6.640625 -27.269531 7.890625 -27.65625 C 9.140625 -28.039062 10.546875 -28.234375 12.109375 -28.234375 C 13.960938 -28.234375 15.566406 -28.035156 16.921875 -27.640625 C 18.273438 -27.242188 19.390625 -26.804688 20.265625 -26.328125 L 18.484375 -21.421875 C 17.710938 -21.828125 16.851562 -22.179688 15.90625 -22.484375 C 14.96875 -22.785156 13.832031 -22.9375 12.5 -22.9375 C 11.019531 -22.9375 9.953125 -22.726562 9.296875 -22.3125 C 8.648438 -21.90625 8.328125 -21.28125 8.328125 -20.4375 C 8.328125 -19.925781 8.445312 -19.5 8.6875 -19.15625 C 8.925781 -18.8125 9.265625 -18.5 9.703125 -18.21875 C 10.140625 -17.9375 10.640625 -17.679688 11.203125 -17.453125 C 11.773438 -17.234375 12.410156 -17.003906 13.109375 -16.765625 C 14.535156 -16.234375 15.78125 -15.707031 16.84375 -15.1875 C 17.90625 -14.675781 18.785156 -14.070312 19.484375 -13.375 C 20.191406 -12.6875 20.71875 -11.878906 21.0625 -10.953125 C 21.414062 -10.023438 21.59375 -8.894531 21.59375 -7.5625 C 21.59375 -4.988281 20.6875 -2.988281 18.875 -1.5625 C 17.070312 -0.144531 14.351562 0.5625 10.71875 0.5625 C 9.488281 0.5625 8.382812 0.488281 7.40625 0.34375 C 6.425781 0.195312 5.554688 0.0195312 4.796875 -0.1875 C 4.046875 -0.40625 3.394531 -0.632812 2.84375 -0.875 C 2.300781 -1.113281 1.84375 -1.335938 1.46875 -1.546875 L 3.21875 -6.484375 C 4.039062 -6.035156 5.054688 -5.628906 6.265625 -5.265625 C 7.472656 -4.910156 8.957031 -4.734375 10.71875 -4.734375 Z M 10.71875 -4.734375 "/></g></g></g><g fill="#ffffff" fill-opacity="1"><g transform="translate(560.811472, 125.267454)"><g><path d="M 21.390625 -20.953125 C 20.191406 -16.910156 18.941406 -13.125 17.640625 -9.59375 C 16.335938 -6.0625 14.914062 -2.640625 13.375 0.671875 C 12.820312 1.867188 12.265625 2.882812 11.703125 3.71875 C 11.148438 4.5625 10.539062 5.253906 9.875 5.796875 C 9.207031 6.335938 8.457031 6.734375 7.625 6.984375 C 6.789062 7.242188 5.816406 7.375 4.703125 7.375 C 3.773438 7.375 2.914062 7.285156 2.125 7.109375 C 1.34375 6.929688 0.703125 6.738281 0.203125 6.53125 L 1.234375 1.796875 C 1.847656 2.003906 2.390625 2.144531 2.859375 2.21875 C 3.335938 2.300781 3.84375 2.34375 4.375 2.34375 C 5.4375 2.34375 6.253906 2.054688 6.828125 1.484375 C 7.398438 0.921875 7.882812 0.132812 8.28125 -0.875 C 6.925781 -3.53125 5.570312 -6.507812 4.21875 -9.8125 C 2.863281 -13.125 1.585938 -16.835938 0.390625 -20.953125 L 6.6875 -20.953125 C 6.957031 -19.910156 7.269531 -18.785156 7.625 -17.578125 C 7.988281 -16.367188 8.367188 -15.144531 8.765625 -13.90625 C 9.160156 -12.675781 9.5625 -11.476562 9.96875 -10.3125 C 10.382812 -9.144531 10.78125 -8.082031 11.15625 -7.125 C 11.5 -8.082031 11.851562 -9.144531 12.21875 -10.3125 C 12.59375 -11.476562 12.957031 -12.675781 13.3125 -13.90625 C 13.675781 -15.144531 14.023438 -16.367188 14.359375 -17.578125 C 14.691406 -18.785156 14.988281 -19.910156 15.25 -20.953125 Z M 21.390625 -20.953125 "/></g></g></g><g fill="#ffffff" fill-opacity="1"><g transform="translate(582.596599, 125.267454)"><g><path d="M 8.796875 -4.265625 C 9.890625 -4.265625 10.660156 -4.367188 11.109375 -4.578125 C 11.566406 -4.796875 11.796875 -5.207031 11.796875 -5.8125 C 11.796875 -6.289062 11.5 -6.707031 10.90625 -7.0625 C 10.320312 -7.425781 9.4375 -7.832031 8.25 -8.28125 C 7.3125 -8.625 6.460938 -8.984375 5.703125 -9.359375 C 4.953125 -9.734375 4.3125 -10.175781 3.78125 -10.6875 C 3.25 -11.207031 2.835938 -11.828125 2.546875 -12.546875 C 2.253906 -13.265625 2.109375 -14.128906 2.109375 -15.140625 C 2.109375 -17.097656 2.835938 -18.644531 4.296875 -19.78125 C 5.753906 -20.925781 7.757812 -21.5 10.3125 -21.5 C 11.59375 -21.5 12.816406 -21.382812 13.984375 -21.15625 C 15.148438 -20.9375 16.078125 -20.695312 16.765625 -20.4375 L 15.734375 -15.8125 C 15.046875 -16.050781 14.296875 -16.265625 13.484375 -16.453125 C 12.671875 -16.640625 11.757812 -16.734375 10.75 -16.734375 C 8.894531 -16.734375 7.96875 -16.210938 7.96875 -15.171875 C 7.96875 -14.929688 8.003906 -14.71875 8.078125 -14.53125 C 8.160156 -14.351562 8.320312 -14.175781 8.5625 -14 C 8.800781 -13.820312 9.125 -13.632812 9.53125 -13.4375 C 9.945312 -13.238281 10.472656 -13.019531 11.109375 -12.78125 C 12.410156 -12.300781 13.484375 -11.828125 14.328125 -11.359375 C 15.179688 -10.898438 15.851562 -10.398438 16.34375 -9.859375 C 16.84375 -9.316406 17.191406 -8.710938 17.390625 -8.046875 C 17.585938 -7.378906 17.6875 -6.609375 17.6875 -5.734375 C 17.6875 -3.660156 16.910156 -2.09375 15.359375 -1.03125 C 13.804688 0.03125 11.609375 0.5625 8.765625 0.5625 C 6.898438 0.5625 5.347656 0.398438 4.109375 0.078125 C 2.878906 -0.234375 2.023438 -0.5 1.546875 -0.71875 L 2.546875 -5.53125 C 3.554688 -5.132812 4.59375 -4.820312 5.65625 -4.59375 C 6.71875 -4.375 7.765625 -4.265625 8.796875 -4.265625 Z M 8.796875 -4.265625 "/></g></g></g><g fill="#ffffff" fill-opacity="1"><g transform="translate(601.912481, 125.267454)"><g><path d="M 2.59375 -26.171875 L 8.515625 -27.125 L 8.515625 -20.953125 L 15.65625 -20.953125 L 15.65625 -16.015625 L 8.515625 -16.015625 L 8.515625 -8.640625 C 8.515625 -7.390625 8.734375 -6.394531 9.171875 -5.65625 C 9.617188 -4.914062 10.503906 -4.546875 11.828125 -4.546875 C 12.460938 -4.546875 13.117188 -4.601562 13.796875 -4.71875 C 14.472656 -4.84375 15.09375 -5.007812 15.65625 -5.21875 L 16.484375 -0.59375 C 15.765625 -0.300781 14.96875 -0.0507812 14.09375 0.15625 C 13.21875 0.375 12.144531 0.484375 10.875 0.484375 C 9.25 0.484375 7.90625 0.265625 6.84375 -0.171875 C 5.78125 -0.617188 4.929688 -1.234375 4.296875 -2.015625 C 3.660156 -2.796875 3.21875 -3.742188 2.96875 -4.859375 C 2.71875 -5.972656 2.59375 -7.207031 2.59375 -8.5625 Z M 2.59375 -26.171875 "/></g></g></g><g fill="#ffffff" fill-opacity="1"><g transform="translate(619.595465, 125.267454)"><g><path d="M 1.796875 -10.3125 C 1.796875 -12.175781 2.078125 -13.800781 2.640625 -15.1875 C 3.210938 -16.582031 3.960938 -17.742188 4.890625 -18.671875 C 5.828125 -19.609375 6.898438 -20.3125 8.109375 -20.78125 C 9.316406 -21.257812 10.554688 -21.5 11.828125 -21.5 C 14.804688 -21.5 17.15625 -20.585938 18.875 -18.765625 C 20.601562 -16.953125 21.46875 -14.28125 21.46875 -10.75 C 21.46875 -10.40625 21.453125 -10.023438 21.421875 -9.609375 C 21.398438 -9.203125 21.375 -8.835938 21.34375 -8.515625 L 7.890625 -8.515625 C 8.015625 -7.296875 8.582031 -6.328125 9.59375 -5.609375 C 10.601562 -4.898438 11.957031 -4.546875 13.65625 -4.546875 C 14.75 -4.546875 15.816406 -4.644531 16.859375 -4.84375 C 17.910156 -5.039062 18.769531 -5.285156 19.4375 -5.578125 L 20.234375 -0.75 C 19.910156 -0.59375 19.484375 -0.4375 18.953125 -0.28125 C 18.421875 -0.125 17.828125 0.0078125 17.171875 0.125 C 16.523438 0.25 15.832031 0.351562 15.09375 0.4375 C 14.351562 0.519531 13.609375 0.5625 12.859375 0.5625 C 10.972656 0.5625 9.332031 0.285156 7.9375 -0.265625 C 6.550781 -0.828125 5.398438 -1.59375 4.484375 -2.5625 C 3.566406 -3.53125 2.890625 -4.675781 2.453125 -6 C 2.015625 -7.332031 1.796875 -8.769531 1.796875 -10.3125 Z M 15.734375 -12.578125 C 15.703125 -13.085938 15.613281 -13.582031 15.46875 -14.0625 C 15.320312 -14.539062 15.097656 -14.960938 14.796875 -15.328125 C 14.492188 -15.703125 14.109375 -16.007812 13.640625 -16.25 C 13.171875 -16.488281 12.59375 -16.609375 11.90625 -16.609375 C 11.238281 -16.609375 10.664062 -16.492188 10.1875 -16.265625 C 9.71875 -16.046875 9.320312 -15.75 9 -15.375 C 8.675781 -15 8.425781 -14.566406 8.25 -14.078125 C 8.082031 -13.585938 7.960938 -13.085938 7.890625 -12.578125 Z M 15.734375 -12.578125 "/></g></g></g><g fill="#ffffff" fill-opacity="1"><g transform="translate(642.854178, 125.267454)"><g><path d="M 14.296875 -11.109375 C 14.296875 -13.023438 14.050781 -14.378906 13.5625 -15.171875 C 13.070312 -15.972656 12.226562 -16.375 11.03125 -16.375 C 10.65625 -16.375 10.269531 -16.351562 9.875 -16.3125 C 9.476562 -16.269531 9.09375 -16.222656 8.71875 -16.171875 L 8.71875 0 L 2.78125 0 L 2.78125 -20.234375 C 3.289062 -20.367188 3.882812 -20.507812 4.5625 -20.65625 C 5.238281 -20.800781 5.953125 -20.929688 6.703125 -21.046875 C 7.460938 -21.171875 8.238281 -21.265625 9.03125 -21.328125 C 9.832031 -21.390625 10.617188 -21.421875 11.390625 -21.421875 C 12.898438 -21.421875 14.125 -21.226562 15.0625 -20.84375 C 16.007812 -20.457031 16.789062 -20 17.40625 -19.46875 C 18.25 -20.082031 19.222656 -20.5625 20.328125 -20.90625 C 21.429688 -21.25 22.445312 -21.421875 23.375 -21.421875 C 25.050781 -21.421875 26.425781 -21.1875 27.5 -20.71875 C 28.570312 -20.257812 29.425781 -19.601562 30.0625 -18.75 C 30.707031 -17.90625 31.148438 -16.898438 31.390625 -15.734375 C 31.628906 -14.566406 31.75 -13.265625 31.75 -11.828125 L 31.75 0 L 25.8125 0 L 25.8125 -11.109375 C 25.8125 -13.023438 25.5625 -14.378906 25.0625 -15.171875 C 24.570312 -15.972656 23.734375 -16.375 22.546875 -16.375 C 22.222656 -16.375 21.773438 -16.289062 21.203125 -16.125 C 20.640625 -15.96875 20.171875 -15.769531 19.796875 -15.53125 C 19.984375 -14.914062 20.101562 -14.269531 20.15625 -13.59375 C 20.207031 -12.914062 20.234375 -12.195312 20.234375 -11.4375 L 20.234375 0 L 14.296875 0 Z M 14.296875 -11.109375 "/></g></g></g></svg>